# xmcd
#
# Track frame offsets:
#	150
#	25908
#	41763
#	63393
#	85075
#	103245
#	125678
#	145670
#	165245
#	183920
#	203565
#	222530
#	242275
#	261193
#
# Disc length: 3687 seconds
#
# Revision: 7
# Processed by: cddbd v1.5.2PL0 Copyright (c) Steve Scherf et al.
# Submitted via: EasyCDDAExtractor 15.3.0.1
#
DISCID=bf0e650e
DTITLE=Celine Dion - The Colour Of My Love
DYEAR=1993
DGENRE=Pop
TTITLE0=The Power Of Love
TTITLE1=Misled
TTITLE2=Think Twice
TTITLE3=Only One Road
TTITLE4=Everybody's Talkin' My Baby Down
TTITLE5=Next Plane Out
TTITLE6=Real Emotion
TTITLE7=When I Fall In Love (Featured In The TriStar Motion Picture ''Sleeples
TTITLE7=s In Seattle'')
TTITLE8=Love Doesn't Ask Why
TTITLE9=Refuse To Dance
TTITLE10=I Remember L.A.
TTITLE11=No Living Without Loving You
TTITLE12=Lovin' Proof
TTITLE13=The Colour Of My Love
EXTD=BK 57555 S3 YEAR: 1993
EXTT0=
EXTT1=
EXTT2=
EXTT3=
EXTT4=
EXTT5=
EXTT6=
EXTT7=
EXTT8=
EXTT9=
EXTT10=
EXTT11=
EXTT12=
EXTT13=
PLAYORDER=
